Patient4_TMGait_0pt3_03_right_28_EMG.mot
version=1
nRows=36
nColumns=33
inDegrees=no
endheader
time	1LAddLong	2LGlutMax	3LGlutMed	4LIliopsoas	5LSemiMemb	6LBicFemLong	7LRecFem	8LVastMed	9LVastLat	10LGasMed	11LTibAnt	12lTibPost	13LPeroneusLong	14LSol	15LExtDigLong	16LFlexDigLong	17RAddLong	18RGlutMax	19RGlutMed	20RIliopsoas	21RSemiMemb	22RBicFemLong	23RRecFem	24RVastMed	25RVastLat	26RGasMed	27RTibAnt	28RTibPost	29RPeroneusLong	30RSol	31RExtDigLong	32RFlexDigLong
52.965	-0.002289	-0.18356	-0.022278	0.001678	0.090637	0.016022	0.054474	-0.002747	0.044861	-0.029907	-0.11841	-0.000916	-0.007477	0.10849	-0.38681	0.015259	0.063324	0.70953	-0.31525	0.010529	-0.22705	-0.004272	0.17746	-0.025482	-0.023193	-0.035858	0.031128	-0.026398	0.19363	-0.043945	0.000763	-0.008545
52.966	0.011902	-0.16876	-0.040131	0.014038	-0.006104	0.028992	0.032654	-0.001984	0.032806	0.009918	-0.095215	0.002594	-0.042419	0.0383	-0.72266	-0.006104	0.036774	0.73227	-0.31052	-0.057831	0.15701	0.09964	0.16953	0.12955	-0.02655	-0.13046	0.034027	-0.000916	0.13672	-0.10925	0.001221	-0.010223
52.967	0.062561	-0.15839	-0.032349	0.02243	-0.075073	0.078278	0.036774	0.007019	0.042419	-0.00824	-0.40451	0.000153	0.018158	0.028687	0.21622	0.000305	-0.017242	0.67139	-0.29129	-0.030365	0.18387	0.19165	0.21545	0.10834	-0.056458	-0.11932	0.014343	-0.004425	0.20157	-0.25589	-0.002136	-0.00412
52.968	-0.040436	-0.16663	-0.031433	0.011292	-0.064545	0.053558	0.033264	0.009155	0.02655	-0.003967	-0.52078	0.012207	0.022736	0.033264	-0.29098	-0.011749	-0.043945	0.58197	-0.11032	-0.022736	0.15274	0.24262	0.15533	0.019531	-0.10498	-0.10849	0.019989	-0.005798	0.14236	-0.26947	-0.002594	-0.011597
52.969	0.030212	-0.18234	-0.029449	0.019836	-0.01236	-0.037231	0.043793	0.000763	0.028076	0.001221	-0.36468	-0.001526	0.067902	-0.068054	-0.066986	0.012665	-0.021362	0.4245	-0.18799	0.049438	-0.056	0.17349	0.036011	-0.028076	-0.0914	-0.057678	0.03006	0.013275	-0.17334	-0.41657	-0.001831	-0.001068
52.97	-0.001373	-0.21439	-0.04303	0.000305	0.02533	-0.026398	0.03479	0.000916	0.024261	-0.015564	-0.12528	0.006409	0.090485	-0.000305	0.076752	-0.001221	-0.019531	0.30472	-0.6488	0.097198	-0.10742	0.061188	-0.16174	0.15228	0.061951	-0.007019	0.000153	-0.13062	-0.28	0.05722	-0.001373	-0.006409
52.971	-0.014954	-0.18478	-0.021362	-0.010834	0.019836	-0.002136	0.032501	0.004272	0.033264	-0.027771	0.18585	-0.001984	0.094604	0.001068	-0.29037	0.00824	-0.017242	0.35095	-0.19012	0.042725	-0.11856	-0.12009	-0.18021	0.13123	0.1532	0.014954	0.014954	-0.35599	-0.3981	0.23499	0.000153	-0.004272
52.972	-0.01358	-0.17899	-0.028534	0.003204	0.006714	-0.00061	0.014801	0.001526	0.050354	0.0177	0.10346	-0.001221	-0.007172	0.006409	-0.36255	0.001678	-0.00473	0.24536	0.28915	-0.001831	-0.068665	-0.33493	-0.046082	-0.10117	0.023346	0.050659	0.047913	-0.52582	-0.44357	0.071564	-0.006866	-0.013123
52.973	0.002747	-0.18478	-0.026855	-0.001373	-0.005798	-0.074158	0.011902	0.000305	0.052032	0.05127	-0.027313	0.004425	-0.007935	-0.19257	-0.19867	-0.006866	-0.007782	0.27634	0.62302	-0.010223	0.059967	-0.32974	0.090485	-0.16495	-0.058594	0.060883	0.035095	0.14282	-0.15488	-0.25894	-0.001526	-0.022125
52.974	-0.00412	-0.22064	-0.024414	-0.003967	-0.01358	-0.11215	0.027313	0.003967	0.046844	0.041962	0.08194	-0.013733	-0.009003	-0.15808	-0.36346	-0.004425	0.015564	0.19486	0.90927	0.003815	0.053864	-0.25894	0.14099	-0.17395	-0.041809	0.029297	0.023956	0.41275	0.038605	-0.093842	-0.001831	-0.016479
52.975	0.003204	-0.24414	-0.027771	0.014801	-0.010986	-0.10986	0.033264	0	0.046997	0.036163	0.17899	0.001526	0.039063	-0.063934	-0.22629	0.000153	0.018921	0.21561	0.4042	0.053253	-0.063171	-0.12878	0.090485	-0.112	-0.032196	-0.01297	0.006409	0.23438	0.072174	0.28046	-0.004272	-0.016937
52.976	-0.009613	-0.25833	-0.018005	0.010223	-0.023804	-0.09903	0.035706	-0.001678	0.043335	-0.012512	0.13107	0.00412	0.15045	-0.046082	0	-0.031128	-0.004425	0.072784	-0.14282	0.067749	0.091248	-0.10468	-0.036774	-0.13901	0.005646	-0.059204	0.011749	0.055847	0.10834	0.043793	-0.000458	-0.010986
52.977	-0.001831	-0.26321	-0.014648	0.00885	-0.007629	0.016632	0.066986	0.011749	0.024261	-0.006256	0.057526	-0.000458	0.077972	-0.005798	0.25085	0.035553	-0.010681	0.01709	-0.26032	0.016479	0.035248	-0.068207	-0.004425	-0.32364	0.037994	-0.047607	0.002136	0.1088	0.1799	-0.457	-0.000458	-0.010834
52.978	-0.007935	-0.24612	-0.024719	0.006714	-0.016785	0.003662	0.04776	0.005798	0.024261	0.024414	0.012665	0.002594	-0.027161	-0.029449	0.88806	0.011902	-0.001373	0.063324	-0.6575	0.032196	-0.10696	-0.005188	0.19348	-0.16998	0.081329	-0.056458	0.001984	0.055237	-0.14908	-0.26779	0.000916	-0.014954
52.979	0.002747	-0.21423	-0.030823	0.016174	-0.04837	-0.046234	0.006714	0.000153	0.048981	0.055695	-0.065155	-0.001678	-0.080261	-0.096741	0.092773	0.014801	0.00824	-0.076447	-0.84885	0.042725	-0.21622	-0.13733	0.20477	0.009003	0.089874	-0.049438	-0.001068	-0.014801	0.043182	-0.34119	0.001831	-0.018311
52.98	-0.003815	-0.21301	-0.031433	0.006714	-0.054169	-0.13107	0.009155	0.000153	0.042877	0.058746	-0.063019	0.007019	-0.061188	-0.17197	0.089264	-0.010986	0.020447	-0.20813	-0.51239	-0.039673	-0.22492	0.050201	0.22461	0.060425	0.017395	-0.03952	-0.004883	-0.055847	0.063934	-0.28214	-0.001068	-0.015259
52.981	0.008545	-0.18967	-0.039978	0.013275	-0.018005	-0.061035	0.025177	-0.001373	0.0383	0.017395	0.041504	0.008392	-0.088806	-0.085754	1.1031	-0.003662	0.02533	-0.34119	0.13855	-0.054474	-0.19134	0.33966	0.030518	0.061035	0.051422	0.071259	-0.001526	0.087433	-0.005798	-0.014801	0.000153	-0.006561
52.982	0.000305	-0.21042	-0.022736	0.001373	0.011139	0.092163	0.030518	0.003204	0.042572	-0.014496	-0.098724	0.009308	0.049744	0.01297	-0.19394	-0.006256	0.006104	-0.36346	-0.096283	-0.040894	0.002899	0.22369	0.007324	0.014343	0.03891	0.10391	0.005798	0.18082	-0.10468	0.77911	0.002136	-0.001678
52.983	0.011749	-0.19913	-0.023956	-0.002289	-0.004272	-0.00351	0.002899	0.000153	0.066071	-0.016327	-0.10086	-0.012665	0.059509	0.083313	0.71747	-0.005035	-0.016785	-0.32516	-0.02121	0.025635	0.17273	0.19165	-0.010529	0.010376	0.04425	0.028687	0.023804	0.037689	-0.060425	0.7959	0.001526	-0.017242
52.984	0.010223	-0.19302	-0.022278	-0.010376	-0.044556	0.029297	0.009003	0.00351	0.066986	-0.011139	0.051727	0.013733	0.046539	0.11139	-0.46112	0.005035	-0.003052	-0.41184	-0.067139	0.028687	0.015869	0.03006	-0.068054	0.035095	0.10193	0.011902	0.021362	-0.020447	0.045471	0.26413	-0.000458	-0.012512
52.985	0.004272	-0.23544	-0.007629	0.002441	-0.054626	0.13458	0.030975	0.000458	0.053711	-0.014954	0.10788	-0.016327	0.022125	0.075531	-0.14557	0.017548	0.008698	-0.4805	-0.23773	-0.00351	-0.001068	0.00885	-0.079651	0.012054	0.049133	0.021057	0.012054	-0.044098	0.049286	-0.042877	-0.004883	-0.014496
52.986	0.007477	-0.2272	-0.000458	0.010071	0.061493	0.078735	0.047913	0.008087	0.041351	0.002136	-0.17883	0.005188	-0.010071	0.063477	-0.27222	0.012207	0.012054	-0.49988	-0.20248	-0.046844	0.019226	0.011749	-0.076904	0.061493	0.092468	0.014954	0.013275	-0.048218	0.031281	-0.12558	-0.000763	-0.015869
52.987	0.014954	-0.19684	-0.023193	0.01709	0.15961	0.048676	0.036316	-0.006104	0.054626	0.011292	-0.24429	-0.00351	-0.023499	0.055389	-0.27069	-0.00473	0.025635	-0.45563	-0.22934	-0.060425	-0.007324	0.064392	0.006256	0.060577	0.12695	0.018768	0.037537	-0.04715	-0.080109	-0.23712	-0.001526	-0.001526
52.988	0.036163	-0.19959	-0.024414	0.016632	0.14725	0.05661	-0.006104	-0.009613	0.069122	0.005951	-0.095978	0.007477	-0.062866	0.11505	-0.38559	-0.005188	0.03952	-0.46432	-0.33295	-0.036926	-0.036469	-0.040588	0.000763	0.033264	0.093231	0.022278	0.04837	-0.045013	-0.1236	0.11261	-0.003357	0.000916
52.989	0.026703	-0.16266	-0.010529	0.014191	0.089874	-0.012817	-0.014343	-0.012512	0.063629	0.03952	0.12039	-0.000305	-0.074158	-0.069275	-0.77331	-0.004883	0.039063	-0.40695	-0.26535	-0.006104	0.05188	-0.09613	0.011902	0.007324	0.074615	0.032654	0.050964	-0.047302	-0.27771	0.40054	0.001984	-0.000763
52.99	0.028229	-0.17349	-0.024872	0.012665	0.067291	0.056915	0.036469	0.001526	0.054932	0.028076	0.035095	0.000305	0.007019	-0.22339	-0.50476	-0.008698	0.008392	-0.42007	-0.21164	0.046692	0.13001	-0.019989	0.024109	-0.031128	0.048676	0.026398	0.064087	-0.055084	-0.36819	0.32593	0.000916	0.002594
52.991	0.013733	-0.17212	-0.017548	0.011292	0.040588	0.044861	0.038605	-0.00351	0.027008	-0.007172	-0.086823	-0.002136	0.054321	-0.23636	-0.065155	-0.003662	-0.021667	-0.41489	-0.1387	0.063629	0.16907	-0.1886	0.00473	0.072174	0.061188	0.030823	0.019836	-0.058899	-0.13672	0.083923	0.000458	-0.005798
52.992	0.01358	-0.1181	-0.017548	0.009003	0.007477	0.1004	0.048828	-0.001221	0.027313	-0.025482	-0.17777	-0.006256	0.11505	-0.18402	0.39597	0.002136	-0.020294	-0.4187	-0.080414	0.0177	-0.10223	-0.19562	0.049438	0.12512	0.063629	0.027161	-0.026245	-0.052032	-0.47516	0.019531	-0.001068	0.006256
52.993	-0.002136	-0.091248	-0.031738	0	-0.040283	0.11337	0.050659	0.003662	0.013123	0.028381	-0.17502	0.00351	0.060577	-0.1532	0.53421	-0.001221	-0.018158	-0.39932	-0.02243	-0.075531	-0.14618	-0.16632	0.053558	0.082245	0.051575	0.001526	-0.008698	-0.050049	-0.010529	-0.070038	-0.000305	-0.010681
52.994	-0.014954	-0.075531	-0.039673	0.002747	-0.026855	0.080261	0.057678	0.00412	0.010071	0.050964	-0.16098	-0.00061	-0.044403	-0.17716	0.61249	0.002136	-0.004578	-0.42267	-0.066071	-0.086365	-0.046844	-0.112	0.042114	0.068359	0.037842	-0.025787	-0.019531	-0.041351	1.0056	-0.24185	-0.000458	-0.019379
52.995	-0.013733	-0.06134	-0.035095	-0.009766	-0.041199	0.026398	0.02533	0.002899	0.025024	0.032654	-0.12756	0.010834	-0.003357	-0.22873	0.13992	0.008545	0.011902	-0.46112	-0.19974	-0.072021	-0.028229	-0.009155	0.057068	0.001068	0.03006	-0.016937	0.016479	0.019684	0.80505	-0.34775	-0.001373	-0.011292
52.996	-0.00824	-0.036163	-0.033569	-0.00824	-0.075531	-0.006104	0.016327	0.00061	0.028839	0.012512	0.067291	-0.008392	0.030212	-0.082703	0.024109	-0.007782	0.01236	-0.55664	-0.20737	0.013275	-0.032349	0.29755	0.046844	0.036926	0.009308	-0.024872	0.070496	0.029297	-0.24582	-0.28336	-0.00061	-0.023499
52.997	-0.005646	-0.063324	-0.018158	-0.018005	-0.063171	-0.13107	0.048676	0.005798	0.015869	0.036926	0.17792	0.000153	-0.003662	0.035858	-0.015259	-0.000305	-0.003815	-0.59677	-0.15503	0.14832	-0.020447	0.48096	0.009613	0.023041	0.005188	-0.029449	0.021667	-0.02594	0.15488	-0.27863	0.001831	-0.015259
52.998	-0.007172	-0.062561	-0.015564	-0.007324	-0.029602	-0.21606	0.067444	0.000305	0.0177	0.049438	0.06485	0.00946	-0.000458	0.043945	0.016174	0.014343	0.00946	-0.63522	-0.079193	0.22095	-0.002441	0.2739	-0.004578	-0.023651	-0.006256	-0.007477	-0.024719	-0.048218	0.43854	-0.14175	-0.005951	-0.018005
52.999	0.015564	-0.020294	-0.024719	0	0.012817	-0.31021	0.039673	-0.007782	0.020599	0.050201	-0.082703	0.008545	-0.028534	0.034637	0.31647	0.007019	0.010681	-0.58487	0.056	0.16144	-0.011902	0.1564	-0.006104	-0.023193	0.00946	-0.00412	0.071716	-0.046234	-0.5127	0.18524	0.000763	-0.01236
53	0.002441	-0.027466	-0.009308	0.003815	0.068359	-0.087738	0.089569	0.001678	-0.006104	0.053253	-0.10284	0.004883	-0.054932	0.040894	0.19333	0.007629	0.020905	-0.55313	0.2066	0.077209	-0.010986	0.27374	0.09201	-0.031738	0.013428	-0.021057	0.048828	-0.048523	-0.14664	0.21088	0.000305	-0.013733
